<?xml version="1.0" encoding="UTF-8"?>
<!-- Material Symbols (Outlined, weight 400, grade 0, optical size 20),
     Apache License 2.0 — see NOTICE. Filled paths only: GTK recolours a
     symbolic icon by forcing the fill, so a stroke would not follow the
     theme. Generated by Atlas Notes' scripts/import-icons.sh, copied from
     its internal/app/icons. -->
<svg width="16" height="16" fill="#000000" xmlns="http://www.w3.org/2000/svg" viewBox="0 -960 960 960"><path d="M216-144q-33 0-52.5-19.5T144-216v-528q0-33 19.5-52.5T216-816h528q33 0 52.5 19.5T816-744v528q0 33-19.5 52.5T744-144H216Zm228-228H216v156h228v-156Zm72 0v156h228v-156H516Zm-72-72v-156H216v156h228Zm72 0h228v-156H516v156ZM216-672h528v-72H216v72Z"/></svg>
